<svg id="visual" viewBox="0 0 960 540" width="960" height="540" xmlns="http://www.w3.org/2000/svg" xmlns:xlink="http://www.w3.org/1999/xlink" version="1.1"><path d="M0 87L8.8 105C17.7 123 35.3 159 53.2 174.3C71 189.7 89 184.3 106.8 163.7C124.7 143 142.3 107 160 101.7C177.7 96.3 195.3 121.7 213.2 152.3C231 183 249 219 266.8 211.8C284.7 204.7 302.3 154.3 320 138.2C337.7 122 355.3 140 373.2 140C391 140 409 122 426.8 125.5C444.7 129 462.3 154 480 155.7C497.7 157.3 515.3 135.7 533.2 132.2C551 128.7 569 143.3 586.8 153.3C604.7 163.3 622.3 168.7 640 159.7C657.7 150.7 675.3 127.3 693.2 126.3C711 125.3 729 146.7 746.8 145.7C764.7 144.7 782.3 121.3 800 115.2C817.7 109 835.3 120 853.2 140.7C871 161.3 889 191.7 906.8 198.8C924.7 206 942.3 190 951.2 182L960 174L960 0L951.2 0C942.3 0 924.7 0 906.8 0C889 0 871 0 853.2 0C835.3 0 817.7 0 800 0C782.3 0 764.7 0 746.8 0C729 0 711 0 693.2 0C675.3 0 657.7 0 640 0C622.3 0 604.7 0 586.8 0C569 0 551 0 533.2 0C515.3 0 497.7 0 480 0C462.3 0 444.7 0 426.8 0C409 0 391 0 373.2 0C355.3 0 337.7 0 320 0C302.3 0 284.7 0 266.8 0C249 0 231 0 213.2 0C195.3 0 177.7 0 160 0C142.3 0 124.7 0 106.8 0C89 0 71 0 53.2 0C35.3 0 17.7 0 8.8 0L0 0Z" fill="#041c32"></path><path d="M0 330L8.8 324.7C17.7 319.3 35.3 308.7 53.2 298C71 287.3 89 276.7 106.8 276.7C124.7 276.7 142.3 287.3 160 293.5C177.7 299.7 195.3 301.3 213.2 313C231 324.7 249 346.3 266.8 358.2C284.7 370 302.3 372 320 360.3C337.7 348.7 355.3 323.3 373.2 306.2C391 289 409 280 426.8 278.2C444.7 276.3 462.3 281.7 480 285.3C497.7 289 515.3 291 533.2 292C551 293 569 293 586.8 300.2C604.7 307.3 622.3 321.7 640 330.7C657.7 339.7 675.3 343.3 693.2 337C711 330.7 729 314.3 746.8 299C764.7 283.7 782.3 269.3 800 259.5C817.7 249.7 835.3 244.3 853.2 252.3C871 260.3 889 281.7 906.8 297.8C924.7 314 942.3 325 951.2 330.5L960 336L960 172L951.2 180C942.3 188 924.7 204 906.8 196.8C889 189.7 871 159.3 853.2 138.7C835.3 118 817.7 107 800 113.2C782.3 119.3 764.7 142.7 746.8 143.7C729 144.7 711 123.3 693.2 124.3C675.3 125.3 657.7 148.7 640 157.7C622.3 166.7 604.7 161.3 586.8 151.3C569 141.3 551 126.7 533.2 130.2C515.3 133.7 497.7 155.3 480 153.7C462.3 152 444.7 127 426.8 123.5C409 120 391 138 373.2 138C355.3 138 337.7 120 320 136.2C302.3 152.3 284.7 202.7 266.8 209.8C249 217 231 181 213.2 150.3C195.3 119.7 177.7 94.3 160 99.7C142.3 105 124.7 141 106.8 161.7C89 182.3 71 187.7 53.2 172.3C35.3 157 17.7 121 8.8 103L0 85Z" fill="#06263e"></path><path d="M0 460L8.8 444.7C17.7 429.3 35.3 398.7 53.2 383.3C71 368 89 368 106.8 375.2C124.7 382.3 142.3 396.7 160 397.7C177.7 398.7 195.3 386.3 213.2 390.8C231 395.3 249 416.7 266.8 430.2C284.7 443.7 302.3 449.3 320 444.8C337.7 440.3 355.3 425.7 373.2 411.2C391 396.7 409 382.3 426.8 375.2C444.7 368 462.3 368 480 371.7C497.7 375.3 515.3 382.7 533.2 388.2C551 393.7 569 397.3 586.8 405.3C604.7 413.3 622.3 425.7 640 426.5C657.7 427.3 675.3 416.7 693.2 401.5C711 386.3 729 366.7 746.8 358.5C764.7 350.3 782.3 353.7 800 355.3C817.7 357 835.3 357 853.2 363.3C871 369.7 889 382.3 906.8 396.8C924.7 411.3 942.3 427.7 951.2 435.8L960 444L960 334L951.2 328.5C942.3 323 924.7 312 906.8 295.8C889 279.7 871 258.3 853.2 250.3C835.3 242.3 817.7 247.7 800 257.5C782.3 267.3 764.7 281.7 746.8 297C729 312.3 711 328.7 693.2 335C675.3 341.3 657.7 337.7 640 328.7C622.3 319.7 604.7 305.3 586.8 298.2C569 291 551 291 533.2 290C515.3 289 497.7 287 480 283.3C462.3 279.7 444.7 274.3 426.8 276.2C409 278 391 287 373.2 304.2C355.3 321.3 337.7 346.7 320 358.3C302.3 370 284.7 368 266.8 356.2C249 344.3 231 322.7 213.2 311C195.3 299.3 177.7 297.7 160 291.5C142.3 285.3 124.7 274.7 106.8 274.7C89 274.7 71 285.3 53.2 296C35.3 306.7 17.7 317.3 8.8 322.7L0 328Z" fill="#07304a"></path><path d="M0 498L8.8 491.7C17.7 485.3 35.3 472.7 53.2 470C71 467.3 89 474.7 106.8 475.5C124.7 476.3 142.3 470.7 160 467C177.7 463.3 195.3 461.7 213.2 468C231 474.3 249 488.7 266.8 495.8C284.7 503 302.3 503 320 495.8C337.7 488.7 355.3 474.3 373.2 469C391 463.7 409 467.3 426.8 467.3C444.7 467.3 462.3 463.7 480 466.3C497.7 469 515.3 478 533.2 480.7C551 483.3 569 479.7 586.8 482.3C604.7 485 622.3 494 640 494C657.7 494 675.3 485 693.2 477C711 469 729 462 746.8 458.5C764.7 455 782.3 455 800 456.7C817.7 458.3 835.3 461.7 853.2 467C871 472.3 889 479.7 906.8 487C924.7 494.3 942.3 501.7 951.2 505.3L960 509L960 442L951.2 433.8C942.3 425.7 924.7 409.3 906.8 394.8C889 380.3 871 367.7 853.2 361.3C835.3 355 817.7 355 800 353.3C782.3 351.7 764.7 348.3 746.8 356.5C729 364.7 711 384.3 693.2 399.5C675.3 414.7 657.7 425.3 640 424.5C622.3 423.7 604.7 411.3 586.8 403.3C569 395.3 551 391.7 533.2 386.2C515.3 380.7 497.7 373.3 480 369.7C462.3 366 444.7 366 426.8 373.2C409 380.3 391 394.7 373.2 409.2C355.3 423.7 337.7 438.3 320 442.8C302.3 447.3 284.7 441.7 266.8 428.2C249 414.7 231 393.3 213.2 388.8C195.3 384.3 177.7 396.7 160 395.7C142.3 394.7 124.7 380.3 106.8 373.2C89 366 71 366 53.2 381.3C35.3 396.7 17.7 427.3 8.8 442.7L0 458Z" fill="#073b56"></path><path d="M0 541L8.8 541C17.7 541 35.3 541 53.2 541C71 541 89 541 106.8 541C124.7 541 142.3 541 160 541C177.7 541 195.3 541 213.2 541C231 541 249 541 266.8 541C284.7 541 302.3 541 320 541C337.7 541 355.3 541 373.2 541C391 541 409 541 426.8 541C444.7 541 462.3 541 480 541C497.7 541 515.3 541 533.2 541C551 541 569 541 586.8 541C604.7 541 622.3 541 640 541C657.7 541 675.3 541 693.2 541C711 541 729 541 746.8 541C764.7 541 782.3 541 800 541C817.7 541 835.3 541 853.2 541C871 541 889 541 906.8 541C924.7 541 942.3 541 951.2 541L960 541L960 507L951.2 503.3C942.3 499.7 924.7 492.3 906.8 485C889 477.7 871 470.3 853.2 465C835.3 459.7 817.7 456.3 800 454.7C782.3 453 764.7 453 746.8 456.5C729 460 711 467 693.2 475C675.3 483 657.7 492 640 492C622.3 492 604.7 483 586.8 480.3C569 477.7 551 481.3 533.2 478.7C515.3 476 497.7 467 480 464.3C462.3 461.7 444.7 465.3 426.8 465.3C409 465.3 391 461.7 373.2 467C355.3 472.3 337.7 486.7 320 493.8C302.3 501 284.7 501 266.8 493.8C249 486.7 231 472.3 213.2 466C195.3 459.7 177.7 461.3 160 465C142.3 468.7 124.7 474.3 106.8 473.5C89 472.7 71 465.3 53.2 468C35.3 470.7 17.7 483.3 8.8 489.7L0 496Z" fill="#064663"></path></svg>