<svg id="visual" viewBox="0 0 960 540" width="960" height="540" xmlns="http://www.w3.org/2000/svg" xmlns:xlink="http://www.w3.org/1999/xlink" version="1.1"><path d="M0 33L8.8 37.5C17.7 42 35.3 51 53.2 54.7C71 58.3 89 56.7 106.8 57.7C124.7 58.7 142.3 62.3 160 63.2C177.7 64 195.3 62 213.2 62.8C231 63.7 249 67.3 266.8 62.8C284.7 58.3 302.3 45.7 320 41.2C337.7 36.7 355.3 40.3 373.2 48.5C391 56.7 409 69.3 426.8 71.2C444.7 73 462.3 64 480 60.3C497.7 56.7 515.3 58.3 533.2 57.5C551 56.7 569 53.3 586.8 49.8C604.7 46.3 622.3 42.7 640 46.2C657.7 49.7 675.3 60.3 693.2 67.5C711 74.7 729 78.3 746.8 72C764.7 65.7 782.3 49.3 800 48.5C817.7 47.7 835.3 62.3 853.2 70.5C871 78.7 889 80.3 906.8 78.5C924.7 76.7 942.3 71.3 951.2 68.7L960 66L960 0L951.2 0C942.3 0 924.7 0 906.8 0C889 0 871 0 853.2 0C835.3 0 817.7 0 800 0C782.3 0 764.7 0 746.8 0C729 0 711 0 693.2 0C675.3 0 657.7 0 640 0C622.3 0 604.7 0 586.8 0C569 0 551 0 533.2 0C515.3 0 497.7 0 480 0C462.3 0 444.7 0 426.8 0C409 0 391 0 373.2 0C355.3 0 337.7 0 320 0C302.3 0 284.7 0 266.8 0C249 0 231 0 213.2 0C195.3 0 177.7 0 160 0C142.3 0 124.7 0 106.8 0C89 0 71 0 53.2 0C35.3 0 17.7 0 8.8 0L0 0Z" fill="#041c32"></path><path d="M0 82L8.8 85.7C17.7 89.3 35.3 96.7 53.2 98.5C71 100.3 89 96.7 106.8 96.7C124.7 96.7 142.3 100.3 160 103C177.7 105.7 195.3 107.3 213.2 104.5C231 101.7 249 94.3 266.8 88C284.7 81.7 302.3 76.3 320 73.7C337.7 71 355.3 71 373.2 81C391 91 409 111 426.8 111C444.7 111 462.3 91 480 87.3C497.7 83.7 515.3 96.3 533.2 98.2C551 100 569 91 586.8 84.7C604.7 78.3 622.3 74.7 640 81C657.7 87.3 675.3 103.7 693.2 112.7C711 121.7 729 123.3 746.8 117.8C764.7 112.3 782.3 99.7 800 99.7C817.7 99.7 835.3 112.3 853.2 115.2C871 118 889 111 906.8 110.2C924.7 109.3 942.3 114.7 951.2 117.3L960 120L960 64L951.2 66.7C942.3 69.3 924.7 74.7 906.8 76.5C889 78.3 871 76.7 853.2 68.5C835.3 60.3 817.7 45.7 800 46.5C782.3 47.3 764.7 63.7 746.8 70C729 76.3 711 72.7 693.2 65.5C675.3 58.3 657.7 47.7 640 44.2C622.3 40.7 604.7 44.3 586.8 47.8C569 51.3 551 54.7 533.2 55.5C515.3 56.3 497.7 54.7 480 58.3C462.3 62 444.7 71 426.8 69.2C409 67.3 391 54.7 373.2 46.5C355.3 38.3 337.7 34.7 320 39.2C302.3 43.7 284.7 56.3 266.8 60.8C249 65.3 231 61.7 213.2 60.8C195.3 60 177.7 62 160 61.2C142.3 60.3 124.7 56.7 106.8 55.7C89 54.7 71 56.3 53.2 52.7C35.3 49 17.7 40 8.8 35.5L0 31Z" fill="#052037"></path><path d="M0 120L8.8 120.8C17.7 121.7 35.3 123.3 53.2 122.3C71 121.3 89 117.7 106.8 115.8C124.7 114 142.3 114 160 117.7C177.7 121.3 195.3 128.7 213.2 129.7C231 130.7 249 125.3 266.8 118.2C284.7 111 302.3 102 320 96.5C337.7 91 355.3 89 373.2 98C391 107 409 127 426.8 126.2C444.7 125.3 462.3 103.7 480 100C497.7 96.3 515.3 110.7 533.2 112.5C551 114.3 569 103.7 586.8 96.5C604.7 89.3 622.3 85.7 640 93.7C657.7 101.7 675.3 121.3 693.2 130.3C711 139.3 729 137.7 746.8 131.5C764.7 125.3 782.3 114.7 800 114.7C817.7 114.7 835.3 125.3 853.2 129.8C871 134.3 889 132.7 906.8 136.3C924.7 140 942.3 149 951.2 153.5L960 158L960 118L951.2 115.3C942.3 112.7 924.7 107.3 906.8 108.2C889 109 871 116 853.2 113.2C835.3 110.3 817.7 97.7 800 97.7C782.3 97.7 764.7 110.3 746.8 115.8C729 121.3 711 119.7 693.2 110.7C675.3 101.7 657.7 85.3 640 79C622.3 72.7 604.7 76.3 586.8 82.7C569 89 551 98 533.2 96.2C515.3 94.3 497.7 81.7 480 85.3C462.3 89 444.7 109 426.8 109C409 109 391 89 373.2 79C355.3 69 337.7 69 320 71.7C302.3 74.3 284.7 79.7 266.8 86C249 92.3 231 99.7 213.2 102.5C195.3 105.3 177.7 103.7 160 101C142.3 98.3 124.7 94.7 106.8 94.7C89 94.7 71 98.3 53.2 96.5C35.3 94.7 17.7 87.3 8.8 83.7L0 80Z" fill="#05253d"></path><path d="M0 131L8.8 134.5C17.7 138 35.3 145 53.2 145C71 145 89 138 106.8 134.5C124.7 131 142.3 131 160 134.5C177.7 138 195.3 145 213.2 148.5C231 152 249 152 266.8 148.5C284.7 145 302.3 138 320 134.5C337.7 131 355.3 131 373.2 138.2C391 145.3 409 159.7 426.8 158.7C444.7 157.7 462.3 141.3 480 135.8C497.7 130.3 515.3 135.7 533.2 133C551 130.3 569 119.7 586.8 112.5C604.7 105.3 622.3 101.7 640 112.5C657.7 123.3 675.3 148.7 693.2 159.5C711 170.3 729 166.7 746.8 157.7C764.7 148.7 782.3 134.3 800 134.3C817.7 134.3 835.3 148.7 853.2 154C871 159.3 889 155.7 906.8 159.3C924.7 163 942.3 174 951.2 179.5L960 185L960 156L951.2 151.5C942.3 147 924.7 138 906.8 134.3C889 130.7 871 132.3 853.2 127.8C835.3 123.3 817.7 112.7 800 112.7C782.3 112.7 764.7 123.3 746.8 129.5C729 135.7 711 137.3 693.2 128.3C675.3 119.3 657.7 99.7 640 91.7C622.3 83.7 604.7 87.3 586.8 94.5C569 101.7 551 112.3 533.2 110.5C515.3 108.7 497.7 94.3 480 98C462.3 101.7 444.7 123.3 426.8 124.2C409 125 391 105 373.2 96C355.3 87 337.7 89 320 94.5C302.3 100 284.7 109 266.8 116.2C249 123.3 231 128.7 213.2 127.7C195.3 126.7 177.7 119.3 160 115.7C142.3 112 124.7 112 106.8 113.8C89 115.7 71 119.3 53.2 120.3C35.3 121.3 17.7 119.7 8.8 118.8L0 118Z" fill="#062942"></path><path d="M0 168L8.8 169C17.7 170 35.3 172 53.2 173.8C71 175.7 89 177.3 106.8 177.3C124.7 177.3 142.3 175.7 160 182C177.7 188.3 195.3 202.7 213.2 205.3C231 208 249 199 266.8 189.2C284.7 179.3 302.3 168.7 320 164.2C337.7 159.7 355.3 161.3 373.2 169.3C391 177.3 409 191.7 426.8 194.3C444.7 197 462.3 188 480 181.7C497.7 175.3 515.3 171.7 533.2 169.8C551 168 569 168 586.8 166.3C604.7 164.7 622.3 161.3 640 168.7C657.7 176 675.3 194 693.2 205.7C711 217.3 729 222.7 746.8 215.3C764.7 208 782.3 188 800 182.5C817.7 177 835.3 186 853.2 191.5C871 197 889 199 906.8 200.8C924.7 202.7 942.3 204.3 951.2 205.2L960 206L960 183L951.2 177.5C942.3 172 924.7 161 906.8 157.3C889 153.7 871 157.3 853.2 152C835.3 146.7 817.7 132.3 800 132.3C782.3 132.3 764.7 146.7 746.8 155.7C729 164.7 711 168.3 693.2 157.5C675.3 146.7 657.7 121.3 640 110.5C622.3 99.7 604.7 103.3 586.8 110.5C569 117.7 551 128.3 533.2 131C515.3 133.7 497.7 128.3 480 133.8C462.3 139.3 444.7 155.7 426.8 156.7C409 157.7 391 143.3 373.2 136.2C355.3 129 337.7 129 320 132.5C302.3 136 284.7 143 266.8 146.5C249 150 231 150 213.2 146.5C195.3 143 177.7 136 160 132.5C142.3 129 124.7 129 106.8 132.5C89 136 71 143 53.2 143C35.3 143 17.7 136 8.8 132.5L0 129Z" fill="#072e47"></path><path d="M0 260L8.8 254.7C17.7 249.3 35.3 238.7 53.2 233.3C71 228 89 228 106.8 229.8C124.7 231.7 142.3 235.3 160 247C177.7 258.7 195.3 278.3 213.2 286.3C231 294.3 249 290.7 266.8 284.3C284.7 278 302.3 269 320 263.7C337.7 258.3 355.3 256.7 373.2 257.7C391 258.7 409 262.3 426.8 266.8C444.7 271.3 462.3 276.7 480 272.2C497.7 267.7 515.3 253.3 533.2 243.3C551 233.3 569 227.7 586.8 221.3C604.7 215 622.3 208 640 218C657.7 228 675.3 255 693.2 272C711 289 729 296 746.8 288.8C764.7 281.7 782.3 260.3 800 248.7C817.7 237 835.3 235 853.2 234C871 233 889 233 906.8 236.7C924.7 240.3 942.3 247.7 951.2 251.3L960 255L960 204L951.2 203.2C942.3 202.3 924.7 200.7 906.8 198.8C889 197 871 195 853.2 189.5C835.3 184 817.7 175 800 180.5C782.3 186 764.7 206 746.8 213.3C729 220.7 711 215.3 693.2 203.7C675.3 192 657.7 174 640 166.7C622.3 159.3 604.7 162.7 586.8 164.3C569 166 551 166 533.2 167.8C515.3 169.7 497.7 173.3 480 179.7C462.3 186 444.7 195 426.8 192.3C409 189.7 391 175.3 373.2 167.3C355.3 159.3 337.7 157.7 320 162.2C302.3 166.7 284.7 177.3 266.8 187.2C249 197 231 206 213.2 203.3C195.3 200.7 177.7 186.3 160 180C142.3 173.7 124.7 175.3 106.8 175.3C89 175.3 71 173.7 53.2 171.8C35.3 170 17.7 168 8.8 167L0 166Z" fill="#07324d"></path><path d="M0 293L8.8 287.5C17.7 282 35.3 271 53.2 267.3C71 263.7 89 267.3 106.8 271C124.7 274.7 142.3 278.3 160 286.5C177.7 294.7 195.3 307.3 213.2 314.5C231 321.7 249 323.3 266.8 317C284.7 310.7 302.3 296.3 320 292.7C337.7 289 355.3 296 373.2 297.8C391 299.7 409 296.3 426.8 297.3C444.7 298.3 462.3 303.7 480 303.7C497.7 303.7 515.3 298.3 533.2 292C551 285.7 569 278.3 586.8 270.2C604.7 262 622.3 253 640 258.3C657.7 263.7 675.3 283.3 693.2 298.7C711 314 729 325 746.8 320.5C764.7 316 782.3 296 800 287C817.7 278 835.3 280 853.2 278.3C871 276.7 889 271.3 906.8 274C924.7 276.7 942.3 287.3 951.2 292.7L960 298L960 253L951.2 249.3C942.3 245.7 924.7 238.3 906.8 234.7C889 231 871 231 853.2 232C835.3 233 817.7 235 800 246.7C782.3 258.3 764.7 279.7 746.8 286.8C729 294 711 287 693.2 270C675.3 253 657.7 226 640 216C622.3 206 604.7 213 586.8 219.3C569 225.7 551 231.3 533.2 241.3C515.3 251.3 497.7 265.7 480 270.2C462.3 274.7 444.7 269.3 426.8 264.8C409 260.3 391 256.7 373.2 255.7C355.3 254.7 337.7 256.3 320 261.7C302.3 267 284.7 276 266.8 282.3C249 288.7 231 292.3 213.2 284.3C195.3 276.3 177.7 256.7 160 245C142.3 233.3 124.7 229.7 106.8 227.8C89 226 71 226 53.2 231.3C35.3 236.7 17.7 247.3 8.8 252.7L0 258Z" fill="#073752"></path><path d="M0 406L8.8 411.3C17.7 416.7 35.3 427.3 53.2 425.5C71 423.7 89 409.3 106.8 404.8C124.7 400.3 142.3 405.7 160 409.3C177.7 413 195.3 415 213.2 421.3C231 427.7 249 438.3 266.8 445.5C284.7 452.7 302.3 456.3 320 447.3C337.7 438.3 355.3 416.7 373.2 410.3C391 404 409 413 426.8 419.3C444.7 425.7 462.3 429.3 480 426.7C497.7 424 515.3 415 533.2 405.2C551 395.3 569 384.7 586.8 374.8C604.7 365 622.3 356 640 357.7C657.7 359.3 675.3 371.7 693.2 383.3C711 395 729 406 746.8 409.7C764.7 413.3 782.3 409.7 800 407.8C817.7 406 835.3 406 853.2 409.7C871 413.3 889 420.7 906.8 428.8C924.7 437 942.3 446 951.2 450.5L960 455L960 296L951.2 290.7C942.3 285.3 924.7 274.7 906.8 272C889 269.3 871 274.7 853.2 276.3C835.3 278 817.7 276 800 285C782.3 294 764.7 314 746.8 318.5C729 323 711 312 693.2 296.7C675.3 281.3 657.7 261.7 640 256.3C622.3 251 604.7 260 586.8 268.2C569 276.3 551 283.7 533.2 290C515.3 296.3 497.7 301.7 480 301.7C462.3 301.7 444.7 296.3 426.8 295.3C409 294.3 391 297.7 373.2 295.8C355.3 294 337.7 287 320 290.7C302.3 294.3 284.7 308.7 266.8 315C249 321.3 231 319.7 213.2 312.5C195.3 305.3 177.7 292.7 160 284.5C142.3 276.3 124.7 272.7 106.8 269C89 265.3 71 261.7 53.2 265.3C35.3 269 17.7 280 8.8 285.5L0 291Z" fill="#073c58"></path><path d="M0 449L8.8 453.5C17.7 458 35.3 467 53.2 462.5C71 458 89 440 106.8 433.7C124.7 427.3 142.3 432.7 160 436.3C177.7 440 195.3 442 213.2 447.5C231 453 249 462 266.8 468.3C284.7 474.7 302.3 478.3 320 469.3C337.7 460.3 355.3 438.7 373.2 435.8C391 433 409 449 426.8 458.8C444.7 468.7 462.3 472.3 480 465.2C497.7 458 515.3 440 533.2 426.5C551 413 569 404 586.8 398.7C604.7 393.3 622.3 391.7 640 392.7C657.7 393.7 675.3 397.3 693.2 404.5C711 411.7 729 422.3 746.8 429.5C764.7 436.7 782.3 440.3 800 442.2C817.7 444 835.3 444 853.2 447.5C871 451 889 458 906.8 462.5C924.7 467 942.3 469 951.2 470L960 471L960 453L951.2 448.5C942.3 444 924.7 435 906.8 426.8C889 418.7 871 411.3 853.2 407.7C835.3 404 817.7 404 800 405.8C782.3 407.7 764.7 411.3 746.8 407.7C729 404 711 393 693.2 381.3C675.3 369.7 657.7 357.3 640 355.7C622.3 354 604.7 363 586.8 372.8C569 382.7 551 393.3 533.2 403.2C515.3 413 497.7 422 480 424.7C462.3 427.3 444.7 423.7 426.8 417.3C409 411 391 402 373.2 408.3C355.3 414.7 337.7 436.3 320 445.3C302.3 454.3 284.7 450.7 266.8 443.5C249 436.3 231 425.7 213.2 419.3C195.3 413 177.7 411 160 407.3C142.3 403.7 124.7 398.3 106.8 402.8C89 407.3 71 421.7 53.2 423.5C35.3 425.3 17.7 414.7 8.8 409.3L0 404Z" fill="#07415d"></path><path d="M0 541L8.8 541C17.7 541 35.3 541 53.2 541C71 541 89 541 106.8 541C124.7 541 142.3 541 160 541C177.7 541 195.3 541 213.2 541C231 541 249 541 266.8 541C284.7 541 302.3 541 320 541C337.7 541 355.3 541 373.2 541C391 541 409 541 426.8 541C444.7 541 462.3 541 480 541C497.7 541 515.3 541 533.2 541C551 541 569 541 586.8 541C604.7 541 622.3 541 640 541C657.7 541 675.3 541 693.2 541C711 541 729 541 746.8 541C764.7 541 782.3 541 800 541C817.7 541 835.3 541 853.2 541C871 541 889 541 906.8 541C924.7 541 942.3 541 951.2 541L960 541L960 469L951.2 468C942.3 467 924.7 465 906.8 460.5C889 456 871 449 853.2 445.5C835.3 442 817.7 442 800 440.2C782.3 438.3 764.7 434.7 746.8 427.5C729 420.3 711 409.7 693.2 402.5C675.3 395.3 657.7 391.7 640 390.7C622.3 389.7 604.7 391.3 586.8 396.7C569 402 551 411 533.2 424.5C515.3 438 497.7 456 480 463.2C462.3 470.3 444.7 466.7 426.8 456.8C409 447 391 431 373.2 433.8C355.3 436.7 337.7 458.3 320 467.3C302.3 476.3 284.7 472.7 266.8 466.3C249 460 231 451 213.2 445.5C195.3 440 177.7 438 160 434.3C142.3 430.7 124.7 425.3 106.8 431.7C89 438 71 456 53.2 460.5C35.3 465 17.7 456 8.8 451.5L0 447Z" fill="#064663"></path></svg>