<svg id="visual" viewBox="0 0 960 540" width="960" height="540" xmlns="http://www.w3.org/2000/svg" xmlns:xlink="http://www.w3.org/1999/xlink" version="1.1"><rect x="0" y="0" width="960" height="540" fill="#041C32"></rect><path d="M0 6L8.5 7.2C17 8.3 34 10.7 50.8 13.3C67.7 16 84.3 19 101.2 23C118 27 135 32 151.8 35.3C168.7 38.7 185.3 40.3 202.2 38.3C219 36.3 236 30.7 252.8 29.2C269.7 27.7 286.3 30.3 303.2 33.3C320 36.3 337 39.7 353.8 35.7C370.7 31.7 387.3 20.3 404.2 14.7C421 9 438 9 454.8 14.8C471.7 20.7 488.3 32.3 505.2 38.5C522 44.7 539 45.3 555.8 44C572.7 42.7 589.3 39.3 606.2 34.7C623 30 640 24 656.8 21.5C673.7 19 690.3 20 707.2 23.8C724 27.7 741 34.3 757.8 34.2C774.7 34 791.3 27 808.2 27.8C825 28.7 842 37.3 858.8 40.2C875.7 43 892.3 40 909.2 33.3C926 26.7 943 16.3 951.5 11.2L960 6L960 0L951.5 0C943 0 926 0 909.2 0C892.3 0 875.7 0 858.8 0C842 0 825 0 808.2 0C791.3 0 774.7 0 757.8 0C741 0 724 0 707.2 0C690.3 0 673.7 0 656.8 0C640 0 623 0 606.2 0C589.3 0 572.7 0 555.8 0C539 0 522 0 505.2 0C488.3 0 471.7 0 454.8 0C438 0 421 0 404.2 0C387.3 0 370.7 0 353.8 0C337 0 320 0 303.2 0C286.3 0 269.7 0 252.8 0C236 0 219 0 202.2 0C185.3 0 168.7 0 151.8 0C135 0 118 0 101.2 0C84.3 0 67.7 0 50.8 0C34 0 17 0 8.5 0L0 0Z" fill="#04293A" stroke-linecap="round" stroke-linejoin="miter"></path></svg>