<svg id="visual" viewBox="0 0 900 450" width="900" height="450" xmlns="http://www.w3.org/2000/svg"
    xmlns:xlink="http://www.w3.org/1999/xlink" version="1.1">
    <path
        d="M0 60L75 71.2C150 82.3 300 104.7 450 108.3C600 112 750 97 825 89.5L900 82L900 0L825 0C750 0 600 0 450 0C300 0 150 0 75 0L0 0Z"
        fill="#CCD1E4"></path>
    <path
        d="M0 262L75 266.5C150 271 300 280 450 269.5C600 259 750 229 825 214L900 199L900 80L825 87.5C750 95 600 110 450 106.3C300 102.7 150 80.3 75 69.2L0 58Z"
        fill="#5463FF"></path>
    <path
        d="M0 384L75 384.7C150 385.3 300 386.7 450 382.2C600 377.7 750 367.3 825 362.2L900 357L900 197L825 212C750 227 600 257 450 267.5C300 278 150 269 75 264.5L0 260Z"
        fill="#5463FF"></path>
    <path
        d="M0 451L75 451C150 451 300 451 450 451C600 451 750 451 825 451L900 451L900 355L825 360.2C750 365.3 600 375.7 450 380.2C300 384.7 150 383.3 75 382.7L0 382Z"
        fill="#CCD1E4"></path>
</svg>