<svg id="visual" viewBox="0 0 960 540" width="960" height="540" xmlns="http://www.w3.org/2000/svg" xmlns:xlink="http://www.w3.org/1999/xlink" version="1.1"><rect x="0" y="0" width="960" height="540" fill="#041C32"></rect><path d="M0 532L8.5 530.8C17 529.7 34 527.3 50.8 524.7C67.7 522 84.3 519 101.2 515C118 511 135 506 151.8 502.7C168.7 499.3 185.3 497.7 202.2 499.7C219 501.7 236 507.3 252.8 508.8C269.7 510.3 286.3 507.7 303.2 504.7C320 501.7 337 498.3 353.8 502.3C370.7 506.3 387.3 517.7 404.2 523.3C421 529 438 529 454.8 523.2C471.7 517.3 488.3 505.7 505.2 499.5C522 493.3 539 492.7 555.8 494C572.7 495.3 589.3 498.7 606.2 503.3C623 508 640 514 656.8 516.5C673.7 519 690.3 518 707.2 514.2C724 510.3 741 503.7 757.8 503.8C774.7 504 791.3 511 808.2 510.2C825 509.3 842 500.7 858.8 497.8C875.7 495 892.3 498 909.2 504.7C926 511.3 943 521.7 951.5 526.8L960 532L960 541L951.5 541C943 541 926 541 909.2 541C892.3 541 875.7 541 858.8 541C842 541 825 541 808.2 541C791.3 541 774.7 541 757.8 541C741 541 724 541 707.2 541C690.3 541 673.7 541 656.8 541C640 541 623 541 606.2 541C589.3 541 572.7 541 555.8 541C539 541 522 541 505.2 541C488.3 541 471.7 541 454.8 541C438 541 421 541 404.2 541C387.3 541 370.7 541 353.8 541C337 541 320 541 303.2 541C286.3 541 269.7 541 252.8 541C236 541 219 541 202.2 541C185.3 541 168.7 541 151.8 541C135 541 118 541 101.2 541C84.3 541 67.7 541 50.8 541C34 541 17 541 8.5 541L0 541Z" fill="#04293A" stroke-linecap="round" stroke-linejoin="miter"></path></svg>