<svg id="visual" viewBox="0 0 450 900" width="450" height="900" xmlns="http://www.w3.org/2000/svg" xmlns:xlink="http://www.w3.org/1999/xlink" version="1.1"><rect x="0" y="0" width="450" height="900" fill="#041C32"></rect><path d="M439 900L437.2 892.2C435.3 884.3 431.7 868.7 427.2 852.8C422.7 837 417.3 821 410.7 805.2C404 789.3 396 773.7 390.5 758C385 742.3 382 726.7 385.3 710.8C388.7 695 398.3 679 401 663.2C403.7 647.3 399.3 631.7 394.3 615.8C389.3 600 383.7 584 390.3 568.2C397 552.3 416 536.7 425.3 521C434.7 505.3 434.3 489.7 424.5 473.8C414.7 458 395.3 442 385 426.2C374.7 410.3 373.3 394.7 375.5 379C377.7 363.3 383.3 347.7 391.2 331.8C399 316 409 300 413.2 284.2C417.3 268.3 415.7 252.7 409.2 236.8C402.7 221 391.3 205 391.7 189.2C392 173.3 404 157.7 402.7 142C401.3 126.3 386.7 110.7 381.8 94.8C377 79 382 63 393.2 47.2C404.3 31.3 421.7 15.7 430.3 7.8L439 0L450 0L450 7.8C450 15.7 450 31.3 450 47.2C450 63 450 79 450 94.8C450 110.7 450 126.3 450 142C450 157.7 450 173.3 450 189.2C450 205 450 221 450 236.8C450 252.7 450 268.3 450 284.2C450 300 450 316 450 331.8C450 347.7 450 363.3 450 379C450 394.7 450 410.3 450 426.2C450 442 450 458 450 473.8C450 489.7 450 505.3 450 521C450 536.7 450 552.3 450 568.2C450 584 450 600 450 615.8C450 631.7 450 647.3 450 663.2C450 679 450 695 450 710.8C450 726.7 450 742.3 450 758C450 773.7 450 789.3 450 805.2C450 821 450 837 450 852.8C450 868.7 450 884.3 450 892.2L450 900Z" fill="#064663" stroke-linecap="round" stroke-linejoin="miter"></path></svg>